<?xml version="1.0"?>
<svg width="583" height="150" xmlns="http://www.w3.org/2000/svg" xmlns:svg="http://www.w3.org/2000/svg" clip-rule="evenodd" fill-rule="evenodd" stroke-linejoin="round" xml:space="preserve">
 <g class="layer">
  <title>Layer 1</title>
  <path d="m34.3,68.59c18.94,0 34.3,-15.35 34.3,-34.3c0,-18.94 -15.36,-34.29 -34.3,-34.29c-18.94,0 -34.3,15.35 -34.3,34.29l0,34.3l34.3,0z" fill="#ffe500" id="svg_21"/>
  <path d="m81.4,34.3c0,18.94 15.35,34.3 34.29,34.3c18.95,0 34.3,-15.36 34.3,-34.3c0,-18.95 -15.35,-34.3 -34.3,-34.3l-34.3,0l0,34.3l0.01,0z" fill="#ff7f00" id="svg_22" stroke="#000000" stroke-opacity="0" transform="matrix(1 0 0 1 0 0)">eb Design</path>
  <path d="m115.7,81.4c-18.94,0 -34.3,15.35 -34.3,34.3c0,18.94 15.36,34.3 34.3,34.3c18.94,0 34.3,-15.36 34.3,-34.3l0,-34.3l-34.3,0z" fill="#ffaa56" id="svg_23"/>
  <path d="m68.59,115.7c0,-18.94 -15.35,-34.3 -34.29,-34.3c-18.95,0 -34.3,15.36 -34.3,34.3c0,18.95 15.35,34.3 34.3,34.3l34.29,0l0,-34.3z" fill="#eaea4f" id="svg_24"/>
  <path d="m74.99,53.05c2.4,10.54 11.41,19.55 21.95,21.95c-10.54,2.4 -19.55,11.41 -21.95,21.95c-2.4,-10.54 -11.4,-19.55 -21.95,-21.95c10.55,-2.4 19.55,-11.41 21.95,-21.95z" fill="#bf5f00" id="svg_25"/>
  <text fill="#ffffff" font-family="Sans-serif" font-size="27" font-weight="bold" id="svg_28" stroke-width="0" text-anchor="middle" transform="matrix(1 0 0 1 0 0) matrix(1.90468 0 0 1.90468 -19.8642 -21.3844)" x="155" xml:space="preserve" y="60">SXSWeb</text>
  <text fill="#ffffff" font-family="Sans-serif" font-size="27" font-weight="normal" id="svg_29" stroke-width="0" text-anchor="middle" transform="matrix(1.90468 0 0 1.90468 -19.8642 -21.3844)" x="260" xml:space="preserve" y="60">Design</text>
 </g>
</svg>